<svg width="1032" height="742" viewBox="0 0 1032 742" fill="none" xmlns="http://www.w3.org/2000/svg">
<g clip-path="url(#clip0)">
<path d="M0 741.253H166" stroke="#3F3D56" stroke-miterlimit="10"/>
<path d="M960.602 127.753H262.398C251.685 127.753 243 136.438 243 147.151V607.355C243 618.068 251.685 626.753 262.398 626.753H960.602C971.315 626.753 980 618.068 980 607.355V147.151C980 136.438 971.315 127.753 960.602 127.753Z" fill="#F2F2F2"/>
<path d="M938.102 96.2529H239.898C229.185 96.2529 220.5 104.938 220.5 115.651V575.855C220.5 586.568 229.185 595.253 239.898 595.253H938.102C948.815 595.253 957.5 586.568 957.5 575.855V115.651C957.5 104.938 948.815 96.2529 938.102 96.2529Z" stroke="#3F3D56" stroke-miterlimit="10"/>
<path d="M220.5 144.093H957.5" stroke="#3F3D56" stroke-miterlimit="10"/>
<path opacity="0.3" d="M854.907 256.253H668.093C664.175 256.253 661 259.428 661 263.345V280.16C661 284.077 664.175 287.253 668.093 287.253H854.907C858.825 287.253 862 284.077 862 280.16V263.345C862 259.428 858.825 256.253 854.907 256.253Z" fill="#1A1A1A"/>
<path opacity="0.3" d="M893.407 342.253H629.593C625.675 342.253 622.5 345.428 622.5 349.345V360.16C622.5 364.077 625.675 367.253 629.593 367.253H893.407C897.325 367.253 900.5 364.077 900.5 360.16V349.345C900.5 345.428 897.325 342.253 893.407 342.253Z" fill="#1A1A1A"/>
<path opacity="0.3" d="M893.407 410.253H629.593C625.675 410.253 622.5 413.428 622.5 417.345V428.16C622.5 432.077 625.675 435.253 629.593 435.253H893.407C897.325 435.253 900.5 432.077 900.5 428.16V417.345C900.5 413.428 897.325 410.253 893.407 410.253Z" fill="#1A1A1A"/>
<path opacity="0.3" d="M893.407 478.253H629.593C625.675 478.253 622.5 481.428 622.5 485.345V496.16C622.5 500.077 625.675 503.253 629.593 503.253H893.407C897.325 503.253 900.5 500.077 900.5 496.16V485.345C900.5 481.428 897.325 478.253 893.407 478.253Z" fill="#1A1A1A"/>
<path d="M864.907 246.253H678.093C674.175 246.253 671 249.428 671 253.345V270.16C671 274.077 674.175 277.253 678.093 277.253H864.907C868.825 277.253 872 274.077 872 270.16V253.345C872 249.428 868.825 246.253 864.907 246.253Z" stroke="#3F3D56" stroke-miterlimit="10"/>
<path d="M903.407 332.253H639.593C635.675 332.253 632.5 335.428 632.5 339.345V350.16C632.5 354.077 635.675 357.253 639.593 357.253H903.407C907.325 357.253 910.5 354.077 910.5 350.16V339.345C910.5 335.428 907.325 332.253 903.407 332.253Z" stroke="#3F3D56" stroke-miterlimit="10"/>
<path d="M903.407 400.253H639.593C635.675 400.253 632.5 403.428 632.5 407.345V418.16C632.5 422.077 635.675 425.253 639.593 425.253H903.407C907.325 425.253 910.5 422.077 910.5 418.16V407.345C910.5 403.428 907.325 400.253 903.407 400.253Z" stroke="#3F3D56" stroke-miterlimit="10"/>
<path d="M903.407 468.253H639.593C635.675 468.253 632.5 471.428 632.5 475.345V486.16C632.5 490.077 635.675 493.253 639.593 493.253H903.407C907.325 493.253 910.5 490.077 910.5 486.16V475.345C910.5 471.428 907.325 468.253 903.407 468.253Z" stroke="#3F3D56" stroke-miterlimit="10"/>
<path opacity="0.3" d="M276.5 141.253C284.784 141.253 291.5 134.537 291.5 126.253C291.5 117.969 284.784 111.253 276.5 111.253C268.216 111.253 261.5 117.969 261.5 126.253C261.5 134.537 268.216 141.253 276.5 141.253Z" fill="#1A1A1A"/>
<path opacity="0.3" d="M318.5 141.253C326.784 141.253 333.5 134.537 333.5 126.253C333.5 117.969 326.784 111.253 318.5 111.253C310.216 111.253 303.5 117.969 303.5 126.253C303.5 134.537 310.216 141.253 318.5 141.253Z" fill="#1A1A1A"/>
<path opacity="0.3" d="M360.5 141.253C368.784 141.253 375.5 134.537 375.5 126.253C375.5 117.969 368.784 111.253 360.5 111.253C352.216 111.253 345.5 117.969 345.5 126.253C345.5 134.537 352.216 141.253 360.5 141.253Z" fill="#1A1A1A"/>
<path d="M282.5 135.253C290.784 135.253 297.5 128.537 297.5 120.253C297.5 111.969 290.784 105.253 282.5 105.253C274.216 105.253 267.5 111.969 267.5 120.253C267.5 128.537 274.216 135.253 282.5 135.253Z" stroke="#3F3D56" stroke-miterlimit="10"/>
<path d="M324.5 135.253C332.784 135.253 339.5 128.537 339.5 120.253C339.5 111.969 332.784 105.253 324.5 105.253C316.216 105.253 309.5 111.969 309.5 120.253C309.5 128.537 316.216 135.253 324.5 135.253Z" stroke="#3F3D56" stroke-miterlimit="10"/>
<path d="M366.5 135.253C374.784 135.253 381.5 128.537 381.5 120.253C381.5 111.969 374.784 105.253 366.5 105.253C358.216 105.253 351.5 111.969 351.5 120.253C351.5 128.537 358.216 135.253 366.5 135.253Z" stroke="#3F3D56" stroke-miterlimit="10"/>
<path d="M453.354 574.253C450.843 562.685 450.177 546.884 451.021 535.893C451.021 535.893 438.323 480.106 428.332 474.901L428.328 474.904C428.175 475.101 423.327 481.458 422.711 501.129C422.087 521.112 415.012 534.225 415.012 534.225C415.012 534.225 417.301 559.133 415.992 574.253L453.354 574.253Z" fill="#1A1A1A"/>
<path d="M545.728 219.253H315.272C312.15 219.253 309.059 219.868 306.175 221.062C303.291 222.257 300.67 224.008 298.463 226.215C296.255 228.423 294.504 231.043 293.31 233.928C292.115 236.812 291.5 239.903 291.5 243.025V550.481C291.5 553.603 292.115 556.694 293.31 559.578C294.504 562.462 296.255 565.083 298.463 567.29C300.67 569.498 303.291 571.249 306.175 572.443C309.059 573.638 312.15 574.253 315.272 574.253H396.127C393.427 563.054 390.07 545.562 393.469 533.401L393.468 533.393L393.47 533.398C393.629 532.83 393.797 532.27 393.986 531.727C396.321 523.835 397.1 515.563 396.278 507.373C397.779 500.376 397.779 493.139 396.278 486.141C393.78 474.486 392.032 463.036 392.032 463.036C392.032 463.036 390.655 447.634 391.857 438.192C391.883 437.985 391.914 437.788 391.943 437.587C391.519 437.49 391.281 437.434 391.281 437.434C391.281 437.434 394.82 421.406 396.069 411.207C396.364 408.799 396.752 405.747 397.172 402.492C396.019 402.3 394.884 402.013 393.779 401.632C382.539 397.677 379 361.874 379 361.874V350.53C379 350.53 375.253 333.149 388.367 325.447C400.995 318.031 406.037 316.001 406.393 315.861C406.489 315.792 406.583 315.729 406.681 315.654C408.109 314.533 409.238 313.079 409.971 311.42C409.989 311.134 409.993 310.85 409.983 310.568C409.77 306.501 406.939 302.803 404.253 299.575C401.962 296.823 399.671 294.071 397.38 291.318C396.595 290.498 395.991 289.522 395.609 288.453C395.464 287.863 395.401 287.256 395.422 286.649C395.42 286.425 395.422 286.2 395.426 285.976C395.464 283.924 395.519 281.872 395.594 279.821C395.658 278.029 396.109 275.767 397.864 275.399C398.777 275.208 399.985 275.542 400.468 274.743C400.63 274.414 400.671 274.039 400.585 273.683C400.579 273.709 400.577 273.737 400.57 273.763C400.564 273.73 400.558 273.696 400.552 273.663C400.191 272.226 399.973 270.757 399.901 269.277C399.882 268.609 399.977 267.943 400.183 267.307C401.2 264.332 404.701 263.111 407.795 262.55C410.889 261.989 414.361 261.506 416.303 259.033C416.823 258.212 417.387 257.419 417.992 256.659C418.883 255.849 419.977 255.297 421.158 255.062C424.998 254.09 429.055 254.45 432.664 256.084C434.16 256.766 435.664 257.686 437.305 257.582C439.01 257.474 440.467 256.274 442.15 255.982C444.869 255.51 447.469 257.548 448.809 259.96C449.66 261.495 450.086 263.229 450.042 264.983C450.074 266.73 449.444 268.424 448.278 269.724C447.108 270.966 445.361 271.819 444.876 273.454C444.678 274.12 444.724 274.836 444.549 275.508C444.527 275.592 444.491 275.671 444.463 275.752C444.495 275.794 444.53 275.833 444.561 275.875C446.608 278.572 447.98 281.72 448.563 285.056C449.146 288.391 448.922 291.818 447.911 295.049C446.9 298.281 445.13 301.224 442.75 303.632C440.37 306.041 437.449 307.845 434.229 308.894C434.221 309.105 434.213 309.316 434.214 309.527C434.154 310.84 434.376 312.15 434.866 313.368C435.356 314.587 436.102 315.687 437.054 316.592L455.601 324.198C455.601 324.198 466.767 322.845 470.796 339.508C471.442 342.277 471.674 345.127 471.486 347.965C471.339 350.478 471.681 354.901 474.543 360.625C479.122 369.784 478.082 390.808 468.715 392.889C459.842 394.861 456.391 394.032 456.051 393.939L456.031 394.307C456.177 398.252 457.581 432.276 462.678 436.393C464.088 437.532 463.819 438.301 462.662 438.819L462.665 438.823C462.665 438.823 462.674 439.041 462.696 439.435C462.849 441.923 463.636 451.399 467.048 456.792C471.004 463.036 470.589 499.049 470.589 499.049L473.293 520.281C473.293 520.281 471.629 533.394 473.293 535.683C474.239 536.981 475.384 557.087 476.198 574.253H545.728C552.033 574.253 558.079 571.748 562.537 567.29C566.995 562.832 569.5 556.786 569.5 550.481V243.025C569.5 239.903 568.885 236.812 567.69 233.928C566.496 231.043 564.745 228.423 562.537 226.215C560.33 224.008 557.709 222.257 554.825 221.062C551.941 219.868 548.85 219.253 545.728 219.253V219.253Z" fill="#1A1A1A"/>
<path d="M521.728 192.253H291.272C278.143 192.253 267.5 202.896 267.5 216.025V523.481C267.5 536.61 278.143 547.253 291.272 547.253H521.728C534.857 547.253 545.5 536.61 545.5 523.481V216.025C545.5 202.896 534.857 192.253 521.728 192.253Z" stroke="#3F3D56" stroke-miterlimit="10"/>
<path d="M100.824 321.631C100.824 321.631 91.5002 318.874 89.5002 321.874C87.5002 324.874 92.2269 346.622 92.2269 346.622L112.773 347.87L105.603 329.764L100.824 321.631Z" fill="#2F2E41"/>
<path d="M28.9441 500.221C28.9441 500.221 47.6388 541.263 33.2418 539.974C18.8447 538.684 13.2578 500.221 13.2578 500.221H28.9441Z" fill="#A0616A"/>
<path d="M151.211 495.944C151.211 495.944 143.01 540.292 156.666 535.555C170.323 530.819 166.431 492.146 166.431 492.146L151.211 495.944Z" fill="#A0616A"/>
<path d="M96.8468 311.34C96.8468 311.34 96.632 331.969 104.583 333.043C112.533 334.118 100.07 345.077 100.07 345.077L85.8879 347.87L65.4742 346.366L56.4492 334.762C56.4492 334.762 72.3504 327.241 65.4742 303.819L96.8468 311.34Z" fill="#A0616A"/>
<path opacity="0.1" d="M96.8468 311.34C96.8468 311.34 96.632 331.969 104.583 333.043C112.533 334.118 100.07 345.077 100.07 345.077L85.8879 347.87L65.4742 346.366L56.4492 334.762C56.4492 334.762 72.3504 327.241 65.4742 303.819L96.8468 311.34Z" fill="black"/>
<path d="M133.376 485.823C133.376 485.823 143.476 507.526 135.525 575.644C135.525 575.644 137.889 599.71 135.955 604.223C134.021 608.735 118.12 669.977 118.12 669.977C118.12 669.977 97.706 674.489 94.9125 660.952C94.9125 660.952 97.706 641.612 97.4911 638.604C97.2762 635.596 102.004 602.719 102.004 602.719L92.3339 539.114L85.0279 596.487C85.0279 596.487 85.0279 613.033 82.6642 616.686C80.3006 620.339 82.6642 693.828 82.6642 693.828C82.6642 693.828 89.3256 705.002 79.2261 705.217C69.1267 705.432 60.1017 705.002 59.2421 697.911C58.3826 690.82 57.9529 683.729 55.804 679.431C53.6552 675.134 50.8618 625.926 51.5064 608.735C52.1511 591.545 37.3243 503.229 42.0516 493.989C46.779 484.749 133.376 485.823 133.376 485.823Z" fill="#2F2E41"/>
<path d="M85.8878 319.075C100.129 319.075 111.674 307.531 111.674 293.29C111.674 279.049 100.129 267.504 85.8878 267.504C71.6467 267.504 60.1021 279.049 60.1021 293.29C60.1021 307.531 71.6467 319.075 85.8878 319.075Z" fill="#A0616A"/>
<path d="M60.1019 335.192C60.1019 335.192 75.7883 346.795 98.5657 337.555C98.5657 337.555 106.087 333.902 105.442 328.315C104.797 322.729 121.128 373.226 121.128 373.226L137.674 461.112L136.815 496.997C136.815 496.997 129.509 493.344 106.731 501.51C83.9538 509.675 46.7793 492.27 46.7793 492.27L48.0686 400.086L49.3579 346.365L52.796 334.547C52.796 334.547 54.515 331.324 60.1019 335.192Z" fill="#F2F2F2"/>
<path d="M97.5635 320.767C97.5635 320.767 101.359 320.15 105.012 325.952C108.665 331.754 117.261 335.407 117.261 335.407C117.261 335.407 138.104 336.696 141.112 347.87C144.121 359.044 151.642 374.3 155.295 402.45C158.948 430.599 166.254 475.51 167.328 479.163C168.402 482.816 165.824 493.989 168.832 497.427C171.84 500.866 147.559 500.866 147.559 500.866C147.559 500.866 145.41 483.245 143.906 483.245C142.402 483.245 142.831 495.064 144.336 503.659C145.84 512.254 133.377 503.659 133.377 503.659C133.377 503.659 123.707 464.336 114.467 428.88C105.227 393.425 99.8552 373.871 101.574 365.92C103.293 357.969 108.021 335.192 104.583 333.043C101.144 330.894 97.5635 320.767 97.5635 320.767Z" fill="#2F2E41"/>
<path d="M66.5753 320.748C66.5753 320.748 60.9613 323.803 46.7791 333.903C32.5969 344.002 22.9273 351.738 22.9273 351.738C22.9273 351.738 17.3404 356.036 13.9023 381.606C10.4642 407.177 2.72845 473.361 5.7368 481.741C8.74515 490.121 9.81955 495.064 8.74514 500.006C7.67073 504.948 31.3077 504.733 31.7374 503.659C32.1672 502.585 31.0928 483.03 32.1672 482.601C33.2416 482.171 39.0434 494.204 40.1178 504.304C41.1922 514.403 53.6553 522.354 56.4488 522.354C59.2423 522.354 73.6393 464.121 73.8542 424.368C74.0691 384.615 69.1268 351.093 65.4738 346.366C61.8208 341.638 66.5753 320.748 66.5753 320.748Z" fill="#2F2E41"/>
<path d="M104.367 671.911C104.367 671.911 106.086 667.183 112.103 668.687C118.12 670.191 122.202 664.819 122.202 664.819C122.202 664.819 125.426 664.39 123.277 668.472C121.128 672.555 119.409 675.349 119.409 675.349C119.409 675.349 132.302 704.787 123.921 711.878C115.541 718.969 105.871 714.672 105.871 714.672C105.871 714.672 96.4167 708.011 96.8464 690.39C96.8464 690.39 96.4167 684.803 91.2595 675.778C86.1024 666.753 82.2345 653.001 88.4661 650.422C94.6976 647.844 96.3015 647.748 96.3015 647.748C96.3015 647.748 93.3855 661.085 100.918 665.746L104.367 671.911Z" fill="#3F3D56"/>
<path d="M64.3996 705.217C64.3996 705.217 59.2425 695.547 67.8377 694.473C76.433 693.399 85.6729 692.754 85.2431 697.266C84.8133 701.779 83.7389 708.655 83.7389 708.655L85.2431 713.597C85.2431 713.597 85.6729 725.846 87.177 727.35C88.6812 728.854 96.8467 741.747 79.4413 741.747C62.0359 741.747 56.8788 739.813 58.383 735.73C59.8871 731.647 60.3169 711.449 60.3169 711.449L64.3996 705.217Z" fill="#3F3D56"/>
<path d="M77.7221 272.662C77.7221 272.662 89.7555 275.885 95.987 277.174C102.219 278.464 101.574 274.811 101.574 274.811C101.574 274.811 109.739 275.885 109.31 275.025C108.88 274.166 112.748 269.653 108.235 264.496C103.723 259.339 105.012 255.471 105.012 255.471H101.144L100.07 253.967H94.0531C94.0531 253.967 89.5406 252.248 77.7221 253.967C65.9036 255.686 49.7875 256.116 48.4982 263.207C47.2089 270.298 40.5476 279.108 42.9113 283.191C45.275 287.274 58.8125 304.034 60.1018 311.126C61.3911 318.217 67.4111 319.792 67.1946 315.351C66.978 310.911 60.9613 295.439 66.1185 294.795C71.2756 294.15 80.0858 281.042 77.7221 272.662Z" fill="#2F2E41"/>
</g>
<defs>
<clipPath id="clip0">
<rect width="1032" height="741.753" fill="white"/>
</clipPath>
</defs>
</svg>
