<svg width="1101" height="576" viewBox="0 0 1101 576" fill="none" xmlns="http://www.w3.org/2000/svg">
<path opacity="0.1" d="M553 434.16C855.652 434.16 1101 430.193 1101 425.3C1101 420.407 855.652 416.44 553 416.44C250.348 416.44 5 420.407 5 425.3C5 430.193 250.348 434.16 553 434.16Z" fill="#F8F9FA"/>
<path opacity="0.1" d="M553 506.91C855.652 506.91 1101 502.943 1101 498.05C1101 493.157 855.652 489.19 553 489.19C250.348 489.19 5 493.157 5 498.05C5 502.943 250.348 506.91 553 506.91Z" fill="#F8F9FA"/>
<path opacity="0.1" d="M548 346.518C850.652 346.518 1096 342.552 1096 337.658C1096 332.765 850.652 328.798 548 328.798C245.348 328.798 0 332.765 0 337.658C0 342.552 245.348 346.518 548 346.518Z" fill="#F8F9FA"/>
<path opacity="0.1" d="M553 354.24C855.652 354.24 1101 350.273 1101 345.38C1101 340.487 855.652 336.52 553 336.52C250.348 336.52 5 340.487 5 345.38C5 350.273 250.348 354.24 553 354.24Z" fill="#F8F9FA"/>
<path opacity="0.1" d="M269.59 183.728C272.089 183.256 274.672 183.538 277.01 184.538C278.413 185.165 279.933 185.489 281.47 185.489C283.007 185.489 284.527 185.165 285.93 184.538C287.589 183.811 289.386 183.452 291.197 183.486C293.008 183.521 294.79 183.948 296.42 184.738C297.344 185.231 298.373 185.491 299.42 185.498C303.67 185.498 307.21 181.208 307.94 175.558C307.092 174.939 306.373 174.161 305.82 173.268C303.32 169.268 299.46 166.678 295.13 166.678C290.8 166.678 286.98 169.218 284.48 173.198C283.737 174.399 282.697 175.387 281.46 176.066C280.223 176.746 278.831 177.095 277.42 177.078H277.31C273.94 177.098 271 179.808 269.59 183.728Z" fill="#F8F9FA"/>
<path d="M806.05 308.92C861.256 308.92 906.01 264.166 906.01 208.96C906.01 153.754 861.256 109 806.05 109C750.844 109 706.09 153.754 706.09 208.96C706.09 264.166 750.844 308.92 806.05 308.92Z" fill="#3F3D56"/>
<path d="M848.96 234.74C845.48 231.26 837.11 226.01 832.96 224.05C828.17 221.75 826.41 221.79 823.02 224.24C820.2 226.24 818.37 228.17 815.13 227.46C811.89 226.75 805.47 221.91 799.26 215.72C793.05 209.53 788.23 203.15 787.54 199.86C786.85 196.57 788.75 194.78 790.77 191.96C793.21 188.57 793.28 186.81 790.96 182.02C788.96 177.87 783.77 169.52 780.26 166.02C776.75 162.52 775.99 163.29 774.07 164.02C772.094 164.848 770.196 165.852 768.4 167.02C764.92 169.35 762.97 171.29 761.6 174.21C760.23 177.13 758.68 182.55 766.65 196.74C772.529 207.595 779.976 217.525 788.75 226.21V226.21C797.464 235.004 807.428 242.464 818.32 248.35C832.5 256.35 837.93 254.76 840.85 253.4C843.77 252.04 845.71 250.11 848.03 246.6C849.2 244.805 850.204 242.907 851.03 240.93C851.69 239.01 852.47 238.23 848.96 234.74Z" fill="#F8F9FA"/>
<path opacity="0.1" d="M806.05 109.01C786.268 109 766.927 114.858 750.474 125.842C734.022 136.827 721.197 152.444 713.622 170.719C706.047 188.993 704.062 209.104 707.919 228.507C711.776 247.909 721.301 265.732 735.289 279.721C749.278 293.709 767.1 303.234 786.503 307.091C805.906 310.948 826.017 308.963 844.291 301.388C862.566 293.813 878.183 280.988 889.168 264.536C900.152 248.083 906.01 228.742 906 208.96C905.987 182.456 895.452 157.041 876.711 138.299C857.969 119.558 832.554 109.023 806.05 109.01V109.01ZM806.05 295.63C788.908 295.63 772.152 290.547 757.899 281.023C743.646 271.5 732.537 257.964 725.977 242.127C719.418 226.29 717.701 208.864 721.045 192.051C724.39 175.239 732.644 159.796 744.765 147.675C756.886 135.554 772.329 127.299 789.142 123.955C805.954 120.611 823.38 122.327 839.217 128.887C855.054 135.447 868.59 146.556 878.113 160.809C887.637 175.062 892.72 191.818 892.72 208.96C892.72 220.342 890.478 231.612 886.123 242.127C881.767 252.642 875.383 262.197 867.335 270.245C859.287 278.293 849.732 284.677 839.217 289.033C828.702 293.388 817.432 295.63 806.05 295.63Z" fill="black"/>
<path d="M554.31 480.497C609.516 480.497 654.27 435.743 654.27 380.537C654.27 325.33 609.516 280.577 554.31 280.577C499.104 280.577 454.35 325.33 454.35 380.537C454.35 435.743 499.104 480.497 554.31 480.497Z" fill="#3F3D56"/>
<path d="M606.93 360.168L577 390.618C576.947 390.669 576.906 390.729 576.877 390.796C576.848 390.863 576.834 390.936 576.834 391.008C576.834 391.081 576.848 391.153 576.877 391.22C576.906 391.287 576.947 391.348 577 391.398L598 413.728C598.502 414.235 598.844 414.878 598.982 415.577C599.12 416.277 599.049 417.002 598.776 417.661C598.504 418.32 598.043 418.884 597.451 419.282C596.859 419.68 596.163 419.895 595.45 419.898C594.49 419.896 593.57 419.515 592.89 418.838L572 396.588C571.893 396.483 571.75 396.424 571.6 396.424C571.45 396.424 571.307 396.483 571.2 396.588L566.11 401.728C564.026 403.86 561.537 405.553 558.789 406.709C556.042 407.864 553.091 408.459 550.11 408.458C547.073 408.444 544.069 407.825 541.274 406.637C538.478 405.449 535.948 403.715 533.83 401.538L528.94 396.538C528.833 396.433 528.69 396.374 528.54 396.374C528.39 396.374 528.247 396.433 528.14 396.538L507.3 418.738C506.965 419.074 506.566 419.341 506.128 419.523C505.69 419.704 505.22 419.798 504.745 419.798C504.27 419.798 503.8 419.704 503.362 419.523C502.924 419.341 502.525 419.074 502.19 418.738C501.853 418.404 501.585 418.006 501.403 417.567C501.22 417.129 501.126 416.658 501.126 416.183C501.126 415.708 501.22 415.238 501.403 414.8C501.585 414.361 501.853 413.963 502.19 413.628L523.11 391.348C523.203 391.24 523.254 391.101 523.254 390.958C523.254 390.815 523.203 390.677 523.11 390.568L493.18 360.118C493.103 360.041 493.005 359.988 492.898 359.967C492.791 359.945 492.68 359.956 492.579 359.998C492.478 360.04 492.392 360.111 492.332 360.202C492.272 360.292 492.24 360.399 492.24 360.508V421.438C492.248 423.794 493.187 426.05 494.853 427.716C496.518 429.381 498.775 430.32 501.13 430.328H599C601.355 430.32 603.612 429.381 605.277 427.716C606.943 426.05 607.882 423.794 607.89 421.438V360.558C607.895 360.445 607.865 360.333 607.803 360.237C607.742 360.142 607.653 360.068 607.548 360.025C607.442 359.982 607.327 359.973 607.216 359.999C607.105 360.024 607.006 360.084 606.93 360.168V360.168Z" fill="#F8F9FA"/>
<path d="M550.08 401.228C552.109 401.248 554.121 400.86 555.997 400.087C557.873 399.314 559.574 398.172 561 396.728L604.59 352.358C603.043 351.077 601.099 350.37 599.09 350.358H501.15C499.14 350.365 497.195 351.072 495.65 352.358L539.25 396.728C540.663 398.164 542.35 399.301 544.21 400.074C546.07 400.847 548.066 401.24 550.08 401.228V401.228Z" fill="#F8F9FA"/>
<path opacity="0.1" d="M553.05 280.587C533.268 280.577 513.927 286.435 497.474 297.419C481.022 308.403 468.197 324.021 460.622 342.295C453.047 360.57 451.062 380.681 454.919 400.084C458.776 419.486 468.301 437.309 482.289 451.298C496.278 465.286 514.101 474.811 533.503 478.668C552.906 482.525 573.017 480.54 591.291 472.965C609.566 465.39 625.183 452.565 636.168 436.113C647.152 419.66 653.01 400.319 653 380.537C652.987 354.033 642.452 328.618 623.711 309.876C604.969 291.135 579.554 280.6 553.05 280.587ZM553.05 467.207C535.908 467.207 519.152 462.124 504.899 452.6C490.646 443.077 479.537 429.541 472.977 413.704C466.418 397.867 464.701 380.441 468.045 363.628C471.39 346.816 479.644 331.373 491.765 319.252C503.886 307.131 519.329 298.876 536.142 295.532C552.954 292.188 570.38 293.904 586.217 300.464C602.054 307.024 615.59 318.133 625.114 332.386C634.637 346.638 639.72 363.395 639.72 380.537C639.72 403.523 630.589 425.568 614.335 441.822C598.081 458.076 576.036 467.207 553.05 467.207Z" fill="black"/>
<path d="M312.85 415.678C368.056 415.678 412.81 370.925 412.81 315.718C412.81 260.512 368.056 215.758 312.85 215.758C257.644 215.758 212.89 260.512 212.89 315.718C212.89 370.925 257.644 415.678 312.85 415.678Z" fill="#3F3D56"/>
<path d="M312.85 267.888L273 359.828L276.72 363.548L312.86 347.608L349 363.548L352.72 359.828L312.85 267.888Z" fill="#F8F9FA"/>
<path opacity="0.1" d="M312.85 215.728C293.07 215.718 273.731 221.575 257.279 232.557C240.828 243.539 228.003 259.154 220.426 277.425C212.85 295.697 210.862 315.805 214.715 335.207C218.568 354.608 228.088 372.431 242.072 386.421C256.055 400.412 273.873 409.941 293.273 413.803C312.672 417.666 332.781 415.688 351.057 408.121C369.332 400.554 384.953 387.737 395.943 371.291C406.934 354.845 412.8 335.509 412.8 315.728C412.8 289.215 402.271 263.788 383.528 245.035C364.785 226.283 339.363 215.742 312.85 215.728V215.728ZM312.85 402.348C295.706 402.348 278.947 397.264 264.694 387.738C250.44 378.213 239.331 364.674 232.773 348.834C226.214 332.994 224.501 315.565 227.849 298.751C231.197 281.938 239.457 266.495 251.583 254.376C263.709 242.257 279.157 234.006 295.972 230.668C312.788 227.329 330.216 229.053 346.052 235.62C361.888 242.188 375.42 253.304 384.938 267.563C394.455 281.823 399.53 298.585 399.52 315.728C399.517 338.713 390.385 360.755 374.131 377.007C357.878 393.258 335.835 402.388 312.85 402.388V402.348Z" fill="black"/>
<path d="M793.93 369.42C793.023 367.207 792.093 365 791.14 362.8C790.355 360.653 789.201 358.66 787.73 356.91C787.171 356.28 786.491 355.77 785.73 355.41C784.893 355.101 784.012 354.926 783.12 354.89C781.76 354.719 780.387 354.682 779.02 354.78C778.49 354.62 777.89 354.41 777.3 354.17C780.259 353.393 782.89 351.685 784.805 349.3C786.721 346.915 787.82 343.977 787.94 340.92C787.94 340.72 787.94 340.51 787.94 340.31C787.948 338.439 787.587 336.584 786.878 334.852C786.169 333.12 785.126 331.545 783.809 330.216C782.491 328.887 780.925 327.831 779.199 327.108C777.473 326.384 775.621 326.008 773.75 326C771.116 325.995 768.534 326.733 766.3 328.13C763.351 327.461 760.261 327.812 757.537 329.125C754.813 330.438 752.614 332.636 751.3 335.36C749.644 336.945 748.335 338.856 747.457 340.974C746.579 343.091 746.151 345.368 746.2 347.66C746.2 347.87 746.2 348.09 746.2 348.29C746.46 356.06 751.48 362.29 757.82 362.92C757.142 363.225 756.52 363.64 755.98 364.15C754.04 366.02 753.72 368.99 753.51 371.69L753.36 373.69L750 374.89C749.893 374.928 749.799 374.995 749.727 375.083C749.656 375.171 749.61 375.277 749.594 375.389C749.579 375.502 749.594 375.616 749.639 375.721C749.685 375.825 749.757 375.914 749.85 375.98L753.06 378.27C753.06 378.46 753.06 378.65 753.06 378.84C753.06 379.03 753.06 379.27 753.12 379.49C752.572 379.973 752.147 380.58 751.88 381.26C751.567 382.31 751.469 383.412 751.59 384.5L751.71 387.29C751.694 389.39 751.981 391.481 752.56 393.5C752.98 394.74 754.8 397.73 756.11 397.75C754.9 403.25 754.58 414.85 754.58 414.85C754.43 415 754.85 415.14 755.58 415.26C756.3 420.78 758.65 436.26 762.82 443.07C763.476 445.29 764.001 447.548 764.39 449.83C764.39 449.83 765.58 464.54 767.15 468.91C768.49 472.63 769.55 481.81 769.84 484.47C769.568 484.54 769.321 484.683 769.125 484.884C768.929 485.085 768.793 485.336 768.73 485.61C767.94 487.99 762.82 491.61 762.82 491.61C761.251 492.394 759.769 493.343 758.4 494.44C756.79 495.89 756.85 497.2 764 496.38C777.8 494.79 780.16 490.38 780.16 490.38C780.16 490.38 779.94 489.64 779.61 488.68C779.189 487.186 778.58 485.752 777.8 484.41C777.6 484.22 777.4 484.54 777.16 485.04C776.119 478.659 775.803 472.182 776.22 465.73C776.22 465.73 776.61 458.97 774.64 454.2C774.202 451.702 774.202 449.148 774.64 446.65C775.43 443.47 771.49 427.96 771.49 427.96L769.23 416.54C769.538 416.93 769.753 417.385 769.86 417.87L769.92 418.1L769.98 418.43C770.003 418.547 770.058 418.654 770.14 418.74C771.68 425.14 775.9 442.87 775.9 445.47C775.9 448.65 779.84 456.6 779.84 456.6C779.84 456.6 781.41 469.72 784.17 474.88C786.27 478.81 786.32 484.57 786.22 487.11C786.22 487.11 785.75 490.38 784.96 491.17C784.332 491.951 783.829 492.825 783.47 493.76L783.38 493.95C783.38 493.95 782.2 496.34 782.99 496.74C785.995 497.919 789.247 498.328 792.45 497.93C792.45 497.93 794.03 495.93 794.03 495.15C793.997 494.674 793.937 494.2 793.85 493.73C793.56 491.85 793.02 488.89 793.01 488.86C793.34 487.58 792.01 484.02 792.01 484.02L791.61 472.89C792.342 465.354 791.4 457.749 788.85 450.62C788.85 450.62 786.85 443.47 787.28 441.48C787.71 439.49 786.49 418.42 786.49 418.42L786.37 418.12C786.263 416.63 786.304 415.132 786.49 413.65C786.88 408.88 785.31 398.94 784.91 398.55C784.584 397.482 784.396 396.376 784.35 395.26C784.44 394.43 784.71 392 785.08 388.98C788.968 388.847 792.847 388.513 796.7 387.98C797.072 387.98 797.43 387.837 797.7 387.58C797.858 387.34 797.938 387.057 797.93 386.77C798.39 380.78 796.2 374.96 793.93 369.42ZM786 382.03C786.41 379.18 786.85 376.42 787.29 374.37L787.35 374.55C788.107 376.611 788.742 378.714 789.25 380.85C788.2 381.33 787.113 381.725 786 382.03Z" fill="url(#paint0_linear)"/>
<path d="M755.37 418.22C755.37 418.22 757.73 439.45 762.84 447.7C763.497 449.893 764.021 452.124 764.41 454.38C764.41 454.38 765.59 468.92 767.16 473.24C768.73 477.56 769.91 489.36 769.91 489.36C769.91 489.36 775.41 495.64 777.38 490.54C776.143 483.802 775.746 476.936 776.2 470.1C776.2 470.1 776.59 463.42 774.63 458.7C774.192 456.233 774.192 453.707 774.63 451.24C775.41 448.09 771.48 432.77 771.48 432.77L768.34 417.44L755.37 418.22Z" fill="#BE6F72"/>
<path d="M780.13 494.47C780.13 494.47 777.77 498.79 764.02 500.36C756.88 501.17 756.83 499.88 758.44 498.44C759.805 497.355 761.279 496.417 762.84 495.64C762.84 495.64 767.95 492.11 768.73 489.75C769.51 487.39 772.27 489.36 772.27 489.36C776.2 495.25 776.99 487.78 777.77 488.57C778.553 489.889 779.161 491.304 779.58 492.78C779.91 493.73 780.13 494.47 780.13 494.47Z" fill="#FF6F61"/>
<path opacity="0.1" d="M780.13 494.47C780.13 494.47 777.77 498.79 764.02 500.36C756.88 501.17 756.83 499.88 758.44 498.44C759.56 499.15 761.82 499.44 766.37 497.61C772.92 494.93 777.67 493.38 779.58 492.78C779.91 493.73 780.13 494.47 780.13 494.47Z" fill="black"/>
<path opacity="0.1" d="M776.2 470.1C776.2 470.1 776.59 463.42 774.63 458.7C774.192 456.233 774.192 453.707 774.63 451.24C775.41 448.09 771.48 432.77 771.48 432.77L768.34 417.44L765.62 417.6L768.73 432.77C768.73 432.77 772.66 448.09 771.88 451.24C771.442 453.707 771.442 456.233 771.88 458.7C773.88 463.42 773.45 470.1 773.45 470.1C772.996 476.936 773.393 483.802 774.63 490.54C774.417 491.18 774.021 491.743 773.49 492.16C774.95 492.82 776.49 492.79 777.38 490.54C776.143 483.802 775.746 476.936 776.2 470.1V470.1Z" fill="black"/>
<path d="M773.64 327.96C771.018 327.955 768.447 328.686 766.22 330.07C763.28 329.391 760.196 329.728 757.472 331.027C754.748 332.325 752.544 334.508 751.22 337.22C749.571 338.78 748.266 340.668 747.389 342.762C746.513 344.856 746.084 347.11 746.13 349.38C746.13 357.74 751.76 364.51 758.7 364.51C763.7 364.51 768.08 360.95 770.09 355.8C771.245 356.106 772.435 356.261 773.63 356.26C777.383 356.26 780.982 354.769 783.636 352.116C786.289 349.462 787.78 345.863 787.78 342.11C787.78 338.357 786.289 334.758 783.636 332.104C780.982 329.451 777.383 327.96 773.63 327.96H773.64Z" fill="#3F3D56"/>
<path d="M785.24 420.19L786.42 423.33C786.42 423.33 787.6 444.16 787.2 446.13C786.8 448.1 788.78 455.13 788.78 455.13C791.321 462.168 792.261 469.683 791.53 477.13L791.92 488.13C791.92 488.13 793.49 492.45 792.71 493.24C791.93 494.03 786 492.54 786 492.54C786 492.54 786.79 484.29 784 479.18C781.21 474.07 779.68 461.1 779.68 461.1C779.68 461.1 775.75 453.24 775.75 450.1C775.75 446.96 769.46 421.41 769.46 421.41L785.24 420.19Z" fill="#BE6F72"/>
<path d="M754.58 419.8C754.58 419.8 754.98 405.65 756.58 401.33C757.394 399.311 757.981 397.208 758.33 395.06C758.33 395.06 782.12 399.36 784.09 397.79C784.09 397.79 784.48 403.29 784.88 403.68C785.28 404.07 786.88 413.9 786.45 418.62C786.02 423.34 786.45 423.33 786.45 423.33C786.45 423.33 770.33 425.69 769.94 423.33C769.55 420.97 768.37 420.98 768.37 420.98C768.37 420.98 753.8 420.54 754.58 419.8Z" fill="#3F3D56"/>
<g opacity="0.1">
<path opacity="0.1" d="M767.55 419.8C767.55 419.8 757.61 419.53 754.61 418.99C754.61 419.5 754.61 419.8 754.61 419.8C753.83 420.58 768.37 420.98 768.37 420.98C768.568 420.998 768.756 421.075 768.91 421.2C768.38 419.8 767.55 419.8 767.55 419.8Z" fill="black"/>
<path opacity="0.1" d="M784.85 403.68C784.45 403.29 784.06 397.79 784.06 397.79C783.856 397.917 783.628 397.998 783.39 398.03C783.53 399.69 783.8 402.24 784.06 402.5C784.32 402.76 786.06 412.72 785.63 417.44C785.2 422.16 785.63 422.15 785.63 422.15C785.63 422.15 772.88 424.02 769.79 422.77C769.79 422.94 769.88 423.13 769.91 423.33C770.3 425.69 786.42 423.33 786.42 423.33C786.42 423.33 786.02 423.33 786.42 418.62C786.82 413.91 785.24 404.08 784.85 403.68Z" fill="black"/>
</g>
<path d="M771.9 352.72C772.239 353.477 772.753 354.142 773.4 354.66C773.817 354.969 774.299 355.178 774.81 355.27C773.93 355.78 772.97 356.16 772.09 356.67C770.706 357.6 769.371 358.602 768.09 359.67C766.78 360.723 765.177 361.345 763.5 361.45C764.089 360.657 764.458 359.722 764.57 358.741C764.682 357.759 764.534 356.766 764.14 355.86C763.78 355.266 763.542 354.607 763.44 353.92C763.44 352.79 764.44 351.92 765.37 351.32C766.12 350.81 766.89 350.32 767.67 349.83C768.28 349.45 769.2 348.65 769.97 348.68C770.74 348.71 770.83 349.39 770.97 350.09C771.168 351.002 771.481 351.886 771.9 352.72V352.72Z" fill="#BE6F72"/>
<path opacity="0.1" d="M771.9 352.72C772.239 353.477 772.753 354.142 773.4 354.66C773.817 354.969 774.299 355.178 774.81 355.27C773.93 355.78 772.97 356.16 772.09 356.67C770.706 357.6 769.371 358.602 768.09 359.67C766.78 360.723 765.177 361.345 763.5 361.45C764.089 360.657 764.458 359.722 764.57 358.741C764.682 357.759 764.534 356.766 764.14 355.86C763.78 355.266 763.542 354.607 763.44 353.92C763.44 352.79 764.44 351.92 765.37 351.32C766.12 350.81 766.89 350.32 767.67 349.83C768.28 349.45 769.2 348.65 769.97 348.68C770.74 348.71 770.83 349.39 770.97 350.09C771.168 351.002 771.481 351.886 771.9 352.72V352.72Z" fill="black"/>
<path d="M781.11 375.91C786.103 375.91 790.15 371.863 790.15 366.87C790.15 361.877 786.103 357.83 781.11 357.83C776.117 357.83 772.07 361.877 772.07 366.87C772.07 371.863 776.117 375.91 781.11 375.91Z" fill="#BE6F72"/>
<path d="M793.88 499.18C793.88 499.97 792.31 501.93 792.31 501.93C789.117 502.322 785.878 501.917 782.88 500.75C782.09 500.36 783.27 498 783.27 498L783.36 497.81C783.72 496.884 784.223 496.021 784.85 495.25C785.63 494.47 786.1 491.25 786.1 491.25C788.54 487.25 792.87 492.98 792.87 492.98C792.87 492.98 793.42 495.98 793.71 497.8C793.81 498.45 793.88 498.98 793.88 499.18Z" fill="#FF6F61"/>
<path opacity="0.1" d="M793.88 499.18C793.88 499.97 792.31 501.93 792.31 501.93C789.117 502.322 785.878 501.917 782.88 500.75C782.09 500.36 783.27 498 783.27 498L783.36 497.81C786.038 499.054 788.969 499.656 791.92 499.57L793.71 497.78C793.81 498.45 793.88 498.98 793.88 499.18Z" fill="black"/>
<path d="M763.03 356.84C767.912 356.84 771.87 352.882 771.87 348C771.87 343.118 767.912 339.16 763.03 339.16C758.148 339.16 754.19 343.118 754.19 348C754.19 352.882 758.148 356.84 763.03 356.84Z" fill="#BE6F72"/>
<path d="M755.9 365.68C753.96 367.53 753.64 370.46 753.44 373.13L753.14 377.04C753.032 378.093 753.008 379.153 753.07 380.21C753.07 380.86 753.23 381.52 753.29 382.21C753.35 382.9 753.37 383.77 753.38 384.56V390.34C753.285 391.533 753.506 392.729 754.02 393.81C754.294 394.333 754.755 394.733 755.31 394.933C755.865 395.133 756.475 395.118 757.02 394.89C757.641 394.411 758.079 393.733 758.26 392.97C759.235 390.625 759.907 388.165 760.26 385.65C760.34 384.78 760.35 383.91 760.43 383.04C760.51 382.17 760.66 381.26 760.79 380.38C761.35 376.7 761.6 372.98 761.85 369.27C761.92 368.17 762.91 363.84 761.47 363.36C760.77 363.13 759.32 363.85 758.65 364.09C757.636 364.429 756.7 364.97 755.9 365.68V365.68Z" fill="#BE6F72"/>
<path opacity="0.1" d="M755.9 365.68C753.96 367.53 753.64 370.46 753.44 373.13L753.14 377.04C753.032 378.093 753.008 379.153 753.07 380.21C753.07 380.86 753.23 381.52 753.29 382.21C753.35 382.9 753.37 383.77 753.38 384.56V390.34C753.285 391.533 753.506 392.729 754.02 393.81C754.294 394.333 754.755 394.733 755.31 394.933C755.865 395.133 756.475 395.118 757.02 394.89C757.641 394.411 758.079 393.733 758.26 392.97C759.235 390.625 759.907 388.165 760.26 385.65C760.34 384.78 760.35 383.91 760.43 383.04C760.51 382.17 760.66 381.26 760.79 380.38C761.35 376.7 761.6 372.98 761.85 369.27C761.92 368.17 762.91 363.84 761.47 363.36C760.77 363.13 759.32 363.85 758.65 364.09C757.636 364.429 756.7 364.97 755.9 365.68V365.68Z" fill="black"/>
<path d="M774.23 353.7C774.23 353.7 767.55 358.81 763.62 359.99C763.62 359.99 761.29 362.65 760.89 363.29C760.49 363.93 759.69 370.99 758.89 372.57C758.09 374.15 756.14 377.68 758.89 381.21C758.89 381.21 759.67 384.75 759.28 385.93C758.89 387.11 757.46 391.43 758.76 391.63C760.06 391.83 764 394.57 767.53 393.79C771.06 393.01 784.24 396.79 784.24 396.79C784.24 396.79 786.42 376.54 788 372.96L784.46 371.78C784.46 371.78 774.64 365.89 780.53 356.85C780.52 356.85 775 355.67 774.23 353.7Z" fill="#FF6F61"/>
<path d="M749.84 377.37L757.96 383.12C758.063 383.196 758.187 383.236 758.315 383.236C758.443 383.236 758.567 383.196 758.67 383.12L760.87 381.47C760.938 381.412 760.992 381.34 761.029 381.259C761.066 381.177 761.086 381.089 761.086 381C761.086 380.911 761.066 380.823 761.029 380.741C760.992 380.66 760.938 380.588 760.87 380.53L754.62 374.98C754.539 374.906 754.439 374.856 754.332 374.835C754.224 374.814 754.113 374.822 754.01 374.86L750 376.3C749.895 376.336 749.801 376.401 749.73 376.487C749.658 376.572 749.612 376.676 749.596 376.786C749.579 376.897 749.593 377.009 749.636 377.112C749.679 377.215 749.75 377.304 749.84 377.37V377.37Z" fill="#3F3D56"/>
<path d="M752.57 394.69C751.996 392.698 751.71 390.633 751.72 388.56L751.6 385.79C751.479 384.715 751.578 383.626 751.89 382.59C752.198 381.879 752.66 381.246 753.243 380.736C753.826 380.226 754.515 379.851 755.26 379.64C756.753 379.226 758.313 379.113 759.85 379.31C760.057 379.311 760.261 379.366 760.44 379.47C760.597 379.615 760.708 379.803 760.76 380.01C760.987 380.453 761.121 380.939 761.152 381.436C761.183 381.934 761.111 382.432 760.94 382.9C760.708 383.281 760.394 383.606 760.02 383.85C758.93 384.63 757.66 385.15 756.63 386C756.421 386.142 756.26 386.344 756.17 386.58C756.12 386.787 756.12 387.003 756.17 387.21C756.298 387.76 756.472 388.299 756.69 388.82C756.778 389.082 756.933 389.316 757.14 389.5C757.33 389.66 757.58 389.72 757.78 389.87C758.21 390.22 759.11 390.68 759.06 391.23C758.91 393.23 757.71 395.47 757.24 397.45C756.34 401.32 753.15 396.38 752.57 394.69Z" fill="#BE6F72"/>
<g opacity="0.1">
<path opacity="0.1" d="M765.2 393.79H764.98C765.829 393.955 766.701 393.955 767.55 393.79H767.8C766.938 393.664 766.062 393.664 765.2 393.79Z" fill="black"/>
<path opacity="0.1" d="M785.83 372.37C784.42 375.54 782.34 392.71 781.97 396.12C783.35 396.48 784.26 396.74 784.26 396.74C784.26 396.74 786.42 376.54 788 372.96L785.83 372.37Z" fill="black"/>
</g>
<path d="M781.42 367.15C781.494 367.545 781.646 367.921 781.867 368.256C782.089 368.591 782.375 368.878 782.71 369.1C783.545 369.8 784.311 370.576 785 371.42C785.988 372.81 786.754 374.345 787.27 375.97C788.02 378.005 788.651 380.082 789.16 382.19C784.16 384.51 778.48 384.4 773.16 385.93C770.869 386.534 768.792 387.763 767.16 389.48C766.346 390.343 765.728 391.371 765.346 392.494C764.965 393.618 764.83 394.81 764.95 395.99C764.958 396.128 764.999 396.262 765.07 396.38C765.157 396.478 765.265 396.554 765.387 396.603C765.508 396.652 765.64 396.671 765.77 396.66C767.099 396.658 768.39 396.215 769.44 395.4C770.478 394.589 771.42 393.663 772.25 392.64C772.765 391.969 773.458 391.456 774.25 391.16C777.14 390.28 780.25 390.33 783.25 390.28C787.737 390.192 792.215 389.838 796.66 389.22C796.822 389.239 796.987 389.222 797.141 389.168C797.295 389.115 797.436 389.027 797.551 388.911C797.667 388.796 797.755 388.655 797.808 388.501C797.862 388.347 797.879 388.182 797.86 388.02C798.3 382.12 796.11 376.36 793.86 370.89C792.96 368.697 792.033 366.513 791.08 364.34C790.295 362.216 789.144 360.247 787.68 358.52C787.124 357.892 786.443 357.388 785.68 357.04C784.82 356.73 783.914 356.561 783 356.54C781.545 356.344 780.071 356.317 778.61 356.46C778.377 357.196 778.236 357.959 778.19 358.73C778.27 361.43 779.45 363.96 780.61 366.4C780.76 366.77 781.19 366.79 781.42 367.15Z" fill="#BE6F72"/>
<path opacity="0.1" d="M765.41 372.21C764.733 373.368 764.388 374.689 764.41 376.03C764.412 376.56 764.497 377.086 764.66 377.59C764.933 378.297 765.361 378.934 765.914 379.453C766.466 379.972 767.127 380.361 767.85 380.59" stroke="black" stroke-miterlimit="10"/>
<path d="M770.5 339.36C770.007 339.358 769.518 339.436 769.05 339.59C767.74 337.59 764.66 336.21 761.05 336.21C756.27 336.21 752.4 338.68 752.4 341.72C752.4 344.76 756.27 347.22 761.05 347.22C762.84 347.239 764.612 346.864 766.24 346.12C766.606 346.878 767.169 347.523 767.869 347.99C768.569 348.456 769.382 348.727 770.222 348.773C771.062 348.819 771.899 348.639 772.646 348.252C773.394 347.866 774.023 347.285 774.471 346.573C774.918 345.86 775.166 345.04 775.189 344.199C775.212 343.358 775.009 342.526 774.602 341.79C774.194 341.054 773.597 340.44 772.872 340.013C772.148 339.585 771.321 339.36 770.48 339.36H770.5Z" fill="#3F3D56"/>
<path opacity="0.1" d="M770.89 347.61C770.003 347.61 769.135 347.36 768.385 346.887C767.634 346.415 767.033 345.74 766.65 344.94C765.022 345.684 763.25 346.059 761.46 346.04C756.69 346.04 752.82 343.58 752.82 340.54C752.805 340.357 752.805 340.173 752.82 339.99C752.535 340.523 752.384 341.116 752.38 341.72C752.38 344.72 756.25 347.22 761.03 347.22C762.82 347.239 764.592 346.864 766.22 346.12C766.651 347.013 767.352 347.747 768.224 348.218C769.097 348.689 770.095 348.873 771.078 348.743C772.061 348.614 772.978 348.177 773.698 347.496C774.419 346.815 774.906 345.924 775.09 344.95C774.71 345.742 774.114 346.412 773.371 346.882C772.629 347.353 771.769 347.605 770.89 347.61V347.61Z" fill="black"/>
<path opacity="0.1" d="M751.23 339.54C752.554 336.828 754.758 334.645 757.482 333.347C760.206 332.048 763.29 331.711 766.23 332.39C768.287 331.12 770.636 330.398 773.052 330.294C775.468 330.191 777.87 330.708 780.029 331.798C782.188 332.887 784.031 334.512 785.383 336.517C786.735 338.522 787.55 340.84 787.75 343.25C787.75 342.86 787.75 342.47 787.75 342.07C787.745 339.555 787.068 337.087 785.791 334.92C784.514 332.754 782.682 330.967 780.484 329.744C778.286 328.521 775.802 327.907 773.288 327.964C770.773 328.021 768.32 328.748 766.18 330.07C763.24 329.391 760.156 329.728 757.432 331.027C754.708 332.325 752.504 334.508 751.18 337.22C749.531 338.78 748.226 340.668 747.349 342.762C746.473 344.856 746.044 347.11 746.09 349.38C746.09 349.78 746.09 350.17 746.09 350.56C746.286 346.353 748.133 342.394 751.23 339.54Z" fill="black"/>
<path d="M478 425.638C478.013 424.104 477.666 422.589 476.987 421.213C476.308 419.838 475.316 418.641 474.09 417.718C474.075 415.007 473.102 412.388 471.344 410.324C469.586 408.26 467.155 406.884 464.48 406.438C464.067 404.467 463.142 402.64 461.8 401.139C460.457 399.638 458.743 398.517 456.83 397.888V397.888C456.366 397.743 455.891 397.633 455.41 397.558H455.27H455.02H454.82H454.6H454.33H453.72C451.063 397.62 448.513 398.619 446.522 400.38C444.531 402.14 443.226 404.549 442.84 407.178C439.33 406.368 436.12 407.418 435.53 409.638C435.382 410.228 435.417 410.849 435.63 411.418C436.23 413.138 438.18 414.788 440.79 415.598L441.13 415.698L441.64 415.828H441.75C441.193 417.014 440.906 418.308 440.91 419.618C440.902 421.226 441.337 422.805 442.168 424.181C442.999 425.557 444.194 426.677 445.62 427.418L445.39 427.558C445.065 427.854 444.806 428.215 444.63 428.618C443.999 429.735 443.505 430.923 443.16 432.158C442.91 433.218 442.87 434.318 442.56 435.368C441.98 437.298 440.5 438.928 440.33 440.938C440.25 441.838 440.4 442.938 439.76 443.518C439.603 443.655 439.432 443.776 439.25 443.878C438.807 444.192 438.43 444.589 438.14 445.048C437.948 445.465 437.684 445.844 437.36 446.168C436.78 446.598 435.83 446.558 435.55 447.228C435.27 447.898 436 448.688 435.83 449.418C435.66 450.148 435.04 450.288 434.59 450.698C434.067 451.261 433.698 451.95 433.52 452.698C432.574 452.879 431.599 452.849 430.666 452.61C429.733 452.372 428.864 451.931 428.12 451.318C428.375 451.964 428.563 452.634 428.68 453.318C427.81 452.654 426.823 452.159 425.77 451.858C424.586 451.32 423.529 450.536 422.67 449.558L424.33 449.328L417 438.138L414.83 437.688L416.77 441.418C416.608 441.492 416.464 441.602 416.35 441.738C416.236 441.875 416.154 442.036 416.11 442.208C416.007 442.623 415.983 443.054 416.04 443.478C416.14 444.488 416.307 445.491 416.54 446.478L417.1 449.098C417.15 449.338 417.21 449.588 417.28 449.828C416.549 449.792 415.816 449.874 415.11 450.068C413.656 449.528 412.142 449.168 410.6 448.998C410.27 448.931 409.93 448.931 409.6 448.998C409.226 449.176 408.901 449.439 408.65 449.768C407.387 451.233 406.266 452.813 405.3 454.488C401.3 461.348 396.09 467.338 391.16 473.538C387.76 474.918 384.33 476.228 380.9 477.538L373.52 480.358C372.081 481.011 370.52 481.352 368.94 481.358C368.24 481.358 367.37 481.208 366.94 481.808C366.747 482.121 366.596 482.457 366.49 482.808L365.73 482.888C365.38 481.688 364.776 480.576 363.96 479.628C363.78 479.659 363.61 479.734 363.466 479.845C363.321 479.957 363.206 480.102 363.13 480.268C362.95 480.598 362.84 480.958 362.63 481.268C362.24 481.848 361.55 482.128 361.06 482.618C360.57 483.108 360.26 483.868 359.72 484.368C358.984 484.913 358.119 485.257 357.21 485.368C355.84 485.688 354.518 486.189 353.28 486.858C352.827 487.142 352.34 487.367 351.83 487.528C351.267 487.638 350.69 487.658 350.12 487.588L346.22 487.298C345.87 487.255 345.515 487.272 345.17 487.348C344.778 487.508 344.448 487.787 344.225 488.147C344.002 488.506 343.899 488.927 343.93 489.348C343.98 489.772 344.116 490.181 344.329 490.551C344.543 490.92 344.829 491.243 345.17 491.498C345.845 491.997 346.594 492.385 347.39 492.648C350.765 493.962 354.244 494.993 357.79 495.728V496.518C360.271 497.769 363.011 498.42 365.79 498.418C365.996 498.432 366.202 498.394 366.39 498.308C366.645 498.117 366.823 497.84 366.89 497.528C367.719 495.048 368.243 492.476 368.45 489.868V489.868C368.938 489.836 369.416 489.714 369.86 489.508C371.2 489.138 372.54 490.058 373.93 490.208C375.64 490.398 377.22 489.398 378.84 488.788L379.54 488.558C379.079 489.151 378.533 489.674 377.92 490.108C377.25 490.588 376.5 490.948 375.85 491.448C375.3 491.947 374.711 492.402 374.09 492.808C373.652 493.011 373.201 493.185 372.74 493.328C372.058 493.582 371.41 493.917 370.81 494.328C370.278 494.645 369.829 495.084 369.5 495.608C369.336 495.876 369.24 496.181 369.221 496.495C369.201 496.808 369.26 497.122 369.39 497.408C369.528 497.642 369.715 497.843 369.938 497.998C370.16 498.153 370.413 498.259 370.68 498.308C371.207 498.388 371.743 498.388 372.27 498.308C374.39 498.148 376.5 497.958 378.61 497.768C379.502 497.712 380.388 497.585 381.26 497.388C381.72 497.278 382.18 497.128 382.64 496.998C383.43 496.799 384.237 496.678 385.05 496.638C385.286 496.62 385.523 496.644 385.75 496.708C386.24 496.868 386.59 497.368 387.09 497.468C387.429 497.511 387.773 497.466 388.09 497.338C389.631 497.006 391.203 496.839 392.78 496.838C393.47 496.838 394.28 496.668 394.6 496.028C394.92 495.388 394.34 494.358 394.08 493.508C393.947 492.965 393.873 492.408 393.86 491.848C393.739 490.471 393.345 489.131 392.7 487.908C392.352 487.338 392.061 486.735 391.83 486.108C394.854 484.96 397.747 483.491 400.46 481.728C401.946 480.652 403.612 479.85 405.38 479.358C407.468 479.109 409.585 479.356 411.56 480.078C416.368 481.472 421.098 483.121 425.73 485.018C427.94 485.928 430.14 486.888 432.42 487.578C433.085 488.47 433.889 489.25 434.8 489.888C436.375 490.774 438.144 491.258 439.95 491.298C442.36 491.518 444.78 491.608 447.2 491.568C449.053 491.649 450.899 491.307 452.6 490.568C453.006 490.365 453.385 490.114 453.73 489.818C454.383 489.874 455.04 489.785 455.656 489.559C456.271 489.332 456.829 488.974 457.29 488.508C458.601 487.385 459.545 485.894 460 484.228C460.59 481.948 460.14 479.228 461.54 477.408C461.91 476.908 462.4 476.508 462.77 476.008C463.218 475.324 463.442 474.516 463.41 473.698C463.426 473.666 463.447 473.636 463.47 473.608C463.777 472.874 463.979 472.099 464.07 471.308C464.242 470.687 464.459 470.078 464.72 469.488C465.431 467.724 466.052 465.925 466.58 464.098C466.941 462.883 467.228 461.648 467.44 460.398C467.59 459.398 467.68 458.398 467.76 457.398C467.866 455.823 468.172 454.267 468.67 452.768C469.922 449.201 470.63 445.466 470.77 441.688V441.468C472.612 441.257 474.309 440.364 475.527 438.965C476.744 437.566 477.395 435.762 477.35 433.908C477.35 432.795 477.115 431.694 476.66 430.678C477.545 429.146 478.007 427.407 478 425.638ZM442.22 469.108C442.33 469.498 442.46 469.878 442.59 470.258C442 469.688 441.43 469.098 440.84 468.518C441.07 468.598 441.31 468.668 441.53 468.758C441.761 468.853 441.982 468.97 442.19 469.108H442.22ZM439.39 467.188C435.93 464.188 431.93 461.858 428.39 458.948C430.32 459.898 432.2 461.008 434.06 462.068C436.267 463.328 438.503 464.538 440.77 465.698C440.398 466.279 439.919 466.785 439.36 467.188H439.39ZM440.86 459.628L441.03 459.458C441.03 459.888 441.03 460.278 441.03 460.648L440.1 460.328C440.357 460.11 440.601 459.876 440.83 459.628H440.86ZM410.43 467.728C411.849 466.122 413.084 464.361 414.11 462.478C415.48 464.868 417.71 466.598 419.6 468.608C416.55 468.218 413.49 467.888 410.43 467.728Z" fill="url(#paint1_linear)"/>
<path d="M415.35 438.608L417.53 439.048L424.96 450.038L421.69 450.478L415.35 438.608Z" fill="#2F2E41"/>
<path d="M362.49 483.188C363.081 485.128 363.81 487.022 364.67 488.858C367.132 488.338 369.555 487.646 371.92 486.788C371.454 486.095 370.95 485.427 370.41 484.788C369.823 484.15 369.129 483.619 368.36 483.218C367.54 483.033 366.69 483.033 365.87 483.218C364.75 483.188 363.62 483.208 362.49 483.188Z" fill="#FBBEBE"/>
<path d="M368.37 486.118C367.779 485.854 367.251 485.465 366.823 484.978C366.395 484.492 366.077 483.919 365.89 483.298C365.509 482.052 364.864 480.903 364 479.928C363.818 479.953 363.645 480.024 363.498 480.134C363.351 480.245 363.235 480.391 363.16 480.558C362.98 480.878 362.87 481.238 362.67 481.558C362.27 482.128 361.57 482.408 361.07 482.888C360.57 483.368 360.27 484.118 359.73 484.608C358.988 485.155 358.116 485.5 357.2 485.608C355.808 485.922 354.464 486.417 353.2 487.078C352.737 487.355 352.244 487.577 351.73 487.738C351.16 487.824 350.58 487.824 350.01 487.738L346.07 487.458C345.739 487.404 345.401 487.404 345.07 487.458C344.668 487.604 344.326 487.88 344.099 488.242C343.873 488.605 343.774 489.033 343.82 489.458C343.867 489.88 344.002 490.287 344.218 490.652C344.433 491.018 344.724 491.333 345.07 491.578C345.754 492.07 346.51 492.454 347.31 492.718C350.74 494.01 354.273 495.014 357.87 495.718V496.498C360.375 497.728 363.129 498.368 365.92 498.368C366.125 498.381 366.33 498.347 366.52 498.268C366.775 498.077 366.953 497.8 367.02 497.488C367.968 494.726 368.523 491.845 368.67 488.928C368.734 488.187 368.677 487.441 368.5 486.718C368.28 486.008 369.02 486.308 368.34 486.028" fill="#2F2E41"/>
<path d="M443.93 471.268C432.25 471.968 420.71 468.548 409.01 468.188C407.558 468.093 406.099 468.183 404.67 468.458C403.182 468.862 401.74 469.422 400.37 470.128C394.1 473.048 387.61 475.468 381.13 477.878L373.68 480.648C372.231 481.303 370.66 481.644 369.07 481.648C368.36 481.648 367.49 481.498 367.07 482.088C365.86 483.888 366.43 486.518 367.23 488.538C367.49 489.188 367.93 489.898 368.63 489.968C369.121 489.935 369.602 489.813 370.05 489.608C371.4 489.248 372.75 490.158 374.15 490.308C375.87 490.488 377.47 489.508 379.1 488.908C381.8 487.908 384.74 487.908 387.58 487.468C392.33 486.678 396.74 484.468 400.86 481.958C402.358 480.891 404.034 480.098 405.81 479.618C407.914 479.37 410.046 479.613 412.04 480.328C416.886 481.696 421.656 483.318 426.33 485.188C428.76 486.246 431.251 487.158 433.79 487.918C439.332 489.368 445.191 489.018 450.52 486.918C452.39 486.178 454.42 484.918 454.52 482.858C454.59 481.708 453.69 480.698 453.1 479.708C452.72 479.078 452.33 478.448 451.92 477.838C449.92 474.938 447.48 471.058 443.93 471.268Z" fill="#2F2E41"/>
<path opacity="0.1" d="M443.93 471.268C432.25 471.968 420.71 468.548 409.01 468.188C407.558 468.093 406.099 468.183 404.67 468.458C403.182 468.862 401.74 469.422 400.37 470.128C394.1 473.048 387.61 475.468 381.13 477.878L373.68 480.648C372.231 481.303 370.66 481.644 369.07 481.648C368.36 481.648 367.49 481.498 367.07 482.088C365.86 483.888 366.43 486.518 367.23 488.538C367.49 489.188 367.93 489.898 368.63 489.968C369.121 489.935 369.602 489.813 370.05 489.608C371.4 489.248 372.75 490.158 374.15 490.308C375.87 490.488 377.47 489.508 379.1 488.908C381.8 487.908 384.74 487.908 387.58 487.468C392.33 486.678 396.74 484.468 400.86 481.958C402.358 480.891 404.034 480.098 405.81 479.618C407.914 479.37 410.046 479.613 412.04 480.328C416.886 481.696 421.656 483.318 426.33 485.188C428.76 486.246 431.251 487.158 433.79 487.918C439.332 489.368 445.191 489.018 450.52 486.918C452.39 486.178 454.42 484.918 454.52 482.858C454.59 481.708 453.69 480.698 453.1 479.708C452.72 479.078 452.33 478.448 451.92 477.838C449.92 474.938 447.48 471.058 443.93 471.268Z" fill="black"/>
<path d="M384.92 483.728C386.747 484.348 388.59 484.922 390.45 485.448C391.45 483.738 393.45 482.548 393.88 480.588C393.905 480.503 393.905 480.413 393.88 480.328C393.831 480.245 393.758 480.179 393.67 480.138C392.333 479.404 390.852 478.971 389.33 478.868C388.13 478.798 387.58 480.048 387.04 480.928C386.83 481.318 385.41 483.918 384.92 483.728Z" fill="#FBBEBE"/>
<path d="M387.48 482.508C386.933 482.416 386.412 482.211 385.949 481.906C385.486 481.601 385.091 481.204 384.79 480.738C384.54 480.288 384.26 479.678 383.74 479.738C383.22 479.798 383.05 480.338 382.94 480.808C382.594 482.58 382.088 484.317 381.43 485.998C380.77 487.688 379.651 489.16 378.2 490.248C377.52 490.718 376.77 491.068 376.1 491.568C375.545 492.06 374.954 492.508 374.33 492.908C373.889 493.106 373.434 493.273 372.97 493.408C372.287 493.665 371.636 494.001 371.03 494.408C370.491 494.718 370.034 495.154 369.7 495.678C369.535 495.941 369.439 496.241 369.421 496.55C369.404 496.86 369.465 497.169 369.6 497.448C369.74 497.678 369.927 497.876 370.15 498.028C370.372 498.18 370.625 498.282 370.89 498.328C371.424 498.408 371.966 498.408 372.5 498.328C374.63 498.178 376.76 497.988 378.89 497.798C379.788 497.74 380.68 497.617 381.56 497.428L382.95 497.048C383.744 496.838 384.559 496.718 385.38 496.688C385.619 496.666 385.86 496.69 386.09 496.758C386.58 496.918 386.93 497.408 387.44 497.508C387.779 497.541 388.121 497.496 388.44 497.378C389.994 497.045 391.58 496.881 393.17 496.888C393.87 496.888 394.69 496.708 395.01 496.088C395.41 495.308 394.75 494.438 394.48 493.598C394.351 493.064 394.277 492.518 394.26 491.968C394.141 490.608 393.742 489.288 393.09 488.088C392.55 487.088 391.81 485.988 392.19 484.928C392.379 484.592 392.501 484.221 392.55 483.838C392.4 482.118 388.46 482.728 387.48 482.508Z" fill="#2F2E41"/>
<path d="M426.42 452.528C424.347 451.62 422.686 449.973 421.76 447.908C421.57 447.468 421.41 446.998 421.22 446.558C420.61 445.068 419.658 443.742 418.44 442.688C418.312 442.552 418.157 442.444 417.985 442.37C417.813 442.296 417.627 442.258 417.44 442.258C417.254 442.314 417.087 442.419 416.955 442.561C416.823 442.704 416.732 442.879 416.69 443.068C416.578 443.475 416.551 443.901 416.61 444.318C416.712 445.302 416.879 446.277 417.11 447.238L417.68 449.818C417.756 450.213 417.873 450.599 418.03 450.968C418.274 451.401 418.596 451.784 418.98 452.098C419.5 452.578 420.03 453.038 420.56 453.498C420.866 453.765 421.202 453.996 421.56 454.188C422.119 454.455 422.716 454.63 423.33 454.708C425.716 455.019 427.993 455.897 429.97 457.268C429.97 457.268 429.97 455.538 429.97 455.348C429.945 454.846 429.771 454.362 429.47 453.958C428.554 453.291 427.519 452.806 426.42 452.528V452.528Z" fill="#FBBEBE"/>
<path opacity="0.1" d="M426.42 452.528C424.347 451.62 422.686 449.973 421.76 447.908C421.57 447.468 421.41 446.998 421.22 446.558C420.61 445.068 419.658 443.742 418.44 442.688C418.312 442.552 418.157 442.444 417.985 442.37C417.813 442.296 417.627 442.258 417.44 442.258C417.254 442.314 417.087 442.419 416.955 442.561C416.823 442.704 416.732 442.879 416.69 443.068C416.578 443.475 416.551 443.901 416.61 444.318C416.712 445.302 416.879 446.277 417.11 447.238L417.68 449.818C417.756 450.213 417.873 450.599 418.03 450.968C418.274 451.401 418.596 451.784 418.98 452.098C419.5 452.578 420.03 453.038 420.56 453.498C420.866 453.765 421.202 453.996 421.56 454.188C422.119 454.455 422.716 454.63 423.33 454.708C425.716 455.019 427.993 455.897 429.97 457.268C429.97 457.268 429.97 455.538 429.97 455.348C429.945 454.846 429.771 454.362 429.47 453.958C428.554 453.291 427.519 452.806 426.42 452.528V452.528Z" fill="black"/>
<path d="M450.2 432.788C451.769 432.788 453.04 431.508 453.04 429.928C453.04 428.349 451.769 427.068 450.2 427.068C448.632 427.068 447.36 428.349 447.36 429.928C447.36 431.508 448.632 432.788 450.2 432.788Z" fill="#2F2E41"/>
<path d="M448.44 428.208C447.68 428.026 446.879 428.14 446.2 428.528C445.872 428.82 445.61 429.178 445.43 429.578C444.794 430.672 444.297 431.841 443.95 433.058C443.7 434.058 443.66 435.188 443.34 436.218C442.76 438.118 441.27 439.728 441.1 441.708C441.02 442.598 441.17 443.638 440.52 444.238C440.361 444.376 440.19 444.5 440.01 444.608C439.56 444.908 439.178 445.3 438.89 445.758C438.694 446.166 438.427 446.535 438.1 446.848C437.52 447.278 436.56 447.238 436.28 447.848C436 448.458 436.73 449.288 436.56 450.008C436.39 450.728 435.76 450.868 435.31 451.268C434.78 451.828 434.407 452.518 434.23 453.268C433.28 453.451 432.301 453.426 431.361 453.192C430.422 452.959 429.545 452.525 428.79 451.918C429.45 453.923 429.738 456.03 429.64 458.138C429.69 458.475 429.671 458.819 429.585 459.149C429.499 459.479 429.348 459.788 429.14 460.058C431.396 460.226 433.63 460.615 435.81 461.218C436.754 461.533 437.776 461.533 438.72 461.218C439.226 460.947 439.679 460.588 440.06 460.158C441.26 458.938 442.52 457.608 442.81 455.918C442.882 454.963 442.898 454.005 442.86 453.048C442.974 451.862 443.219 450.691 443.59 449.558C444.223 447.207 444.648 444.804 444.86 442.378C444.99 440.878 446.29 439.678 446.97 438.378C448.25 435.848 449.57 433.218 449.66 430.378C449.7 429.458 449.38 428.308 448.44 428.208Z" fill="#2F2E41"/>
<path opacity="0.1" d="M448.44 428.208C447.68 428.026 446.879 428.14 446.2 428.528C445.872 428.82 445.61 429.178 445.43 429.578C444.794 430.672 444.297 431.841 443.95 433.058C443.7 434.058 443.66 435.188 443.34 436.218C442.76 438.118 441.27 439.728 441.1 441.708C441.02 442.598 441.17 443.638 440.52 444.238C440.361 444.376 440.19 444.5 440.01 444.608C439.56 444.908 439.178 445.3 438.89 445.758C438.694 446.166 438.427 446.535 438.1 446.848C437.52 447.278 436.56 447.238 436.28 447.848C436 448.458 436.73 449.288 436.56 450.008C436.39 450.728 435.76 450.868 435.31 451.268C434.78 451.828 434.407 452.518 434.23 453.268C433.28 453.451 432.301 453.426 431.361 453.192C430.422 452.959 429.545 452.525 428.79 451.918C429.45 453.923 429.738 456.03 429.64 458.138C429.69 458.475 429.671 458.819 429.585 459.149C429.499 459.479 429.348 459.788 429.14 460.058C431.396 460.226 433.63 460.615 435.81 461.218C436.754 461.533 437.776 461.533 438.72 461.218C439.226 460.947 439.679 460.588 440.06 460.158C441.26 458.938 442.52 457.608 442.81 455.918C442.882 454.963 442.898 454.005 442.86 453.048C442.974 451.862 443.219 450.691 443.59 449.558C444.223 447.207 444.648 444.804 444.86 442.378C444.99 440.878 446.29 439.678 446.97 438.378C448.25 435.848 449.57 433.218 449.66 430.378C449.7 429.458 449.38 428.308 448.44 428.208Z" fill="black"/>
<path d="M445.78 473.728C443.35 472.568 441.57 470.418 439.6 468.568C435.85 465.038 431.26 462.568 427.31 459.238C424.69 457.048 422.31 454.498 419.48 452.658C416.945 451.051 414.074 450.049 411.09 449.728C410.761 449.653 410.419 449.653 410.09 449.728C409.712 449.889 409.384 450.148 409.14 450.478C407.865 451.917 406.73 453.474 405.75 455.128C400.75 463.628 393.64 470.768 387.75 478.668C387.615 478.832 387.516 479.023 387.46 479.228C387.435 479.535 387.513 479.841 387.68 480.098L388.88 482.438C389.55 483.758 390.63 485.288 392.07 485.028C392.718 484.841 393.299 484.469 393.74 483.958L399.12 478.808L404.76 473.418C408.06 470.268 411.42 467.038 413.58 462.998C415.26 465.918 418.25 467.828 420.29 470.498C421.07 471.498 421.71 472.628 422.41 473.708C423.52 475.428 424.79 477.048 426.05 478.708L432.52 486.958C433.34 488.124 434.355 489.138 435.52 489.958C437.115 490.827 438.894 491.303 440.71 491.348C443.14 491.565 445.58 491.652 448.02 491.608C449.888 491.684 451.75 491.342 453.47 490.608C454.327 490.231 455.06 489.619 455.582 488.841C456.104 488.064 456.395 487.154 456.42 486.218C456.32 485.25 456.002 484.316 455.49 483.488C453.15 479.318 450.13 475.798 445.78 473.728Z" fill="#2F2E41"/>
<path d="M451.95 434.108C453.16 434.108 454.14 433.123 454.14 431.908C454.14 430.693 453.16 429.708 451.95 429.708C450.741 429.708 449.76 430.693 449.76 431.908C449.76 433.123 450.741 434.108 451.95 434.108Z" fill="#E8E8F0"/>
<path d="M451.47 430.258C451.959 431.24 452.045 432.374 451.71 433.418C451.365 434.444 450.891 435.422 450.3 436.328C449.792 437.262 449.178 438.135 448.47 438.928C451.85 439.088 455.12 437.768 458.09 436.168C460.49 434.878 462.88 433.288 464.16 430.878C463.778 430.969 463.381 430.979 462.995 430.907C462.609 430.834 462.243 430.681 461.92 430.458C461.275 430.015 460.699 429.479 460.21 428.868L458.52 426.968C458.137 426.55 457.801 426.091 457.52 425.598C457.149 424.925 456.992 424.154 457.07 423.388C456.396 424.091 455.645 424.715 454.83 425.248C453.62 426.038 452.29 426.608 451.07 427.388C450.65 427.668 449.69 428.108 449.94 428.668C450.19 429.228 451.13 429.658 451.47 430.258Z" fill="#FBBEBE"/>
<path opacity="0.1" d="M451.47 430.258C451.959 431.24 452.045 432.374 451.71 433.418C451.365 434.444 450.891 435.422 450.3 436.328C449.792 437.262 449.178 438.135 448.47 438.928C451.85 439.088 455.12 437.768 458.09 436.168C460.49 434.878 462.88 433.288 464.16 430.878C463.778 430.969 463.381 430.979 462.995 430.907C462.609 430.834 462.243 430.681 461.92 430.458C461.275 430.015 460.699 429.479 460.21 428.868L458.52 426.968C458.137 426.55 457.801 426.091 457.52 425.598C457.149 424.925 456.992 424.154 457.07 423.388C456.396 424.091 455.645 424.715 454.83 425.248C453.62 426.038 452.29 426.608 451.07 427.388C450.65 427.668 449.69 428.108 449.94 428.668C450.19 429.228 451.13 429.658 451.47 430.258Z" fill="black"/>
<path d="M451.51 430.588C451.168 431.07 450.984 431.647 450.984 432.238C450.984 432.83 451.168 433.406 451.51 433.888C451.61 434.008 451.97 434.758 452.12 434.768C452.194 434.762 452.265 434.741 452.33 434.707C452.396 434.673 452.453 434.625 452.5 434.568C453.269 433.767 453.984 432.915 454.64 432.018C455.31 431.124 456.273 430.494 457.36 430.238C458.707 430.187 460.031 430.6 461.11 431.408C461.612 431.637 462.053 431.98 462.4 432.408C462.641 432.849 462.785 433.337 462.82 433.838C463.147 436.857 463.274 439.893 463.2 442.928C463.257 445.12 463.114 447.313 462.77 449.478C462.55 450.588 462.23 451.678 462.08 452.808C461.963 453.804 461.916 454.806 461.94 455.808V459.988C461.913 460.755 461.967 461.523 462.1 462.278C462.3 463.188 462.73 464.038 463.02 464.928C463.319 465.951 463.523 466.998 463.63 468.058L464.2 472.378C464.38 473.738 464.52 475.228 463.69 476.378C463.32 476.868 462.83 477.268 462.45 477.758C461.04 479.598 461.45 482.228 460.9 484.478C460.437 486.125 459.481 487.591 458.16 488.678C457.689 489.144 457.122 489.501 456.498 489.724C455.874 489.947 455.209 490.03 454.55 489.968C452.79 489.638 451.74 487.808 451.26 486.078C450.78 484.348 450.61 482.468 449.57 481.008C448.616 479.903 447.487 478.961 446.23 478.218C444.958 477.465 444.023 476.251 443.62 474.828C443.51 474.198 443.62 473.548 443.51 472.908C443.416 472.103 443.108 471.337 442.617 470.692C442.126 470.046 441.471 469.544 440.72 469.238C439.82 468.888 438.72 468.758 438.2 467.938C439.487 467.132 440.426 465.873 440.83 464.408C441.228 462.954 441.443 461.456 441.47 459.948L441.77 454.948C441.91 452.698 441.97 450.478 442.96 448.458C443.4 447.558 443.96 446.708 444.41 445.818C445.02 444.568 445.538 443.274 445.96 441.948C446.68 439.888 447.4 437.828 448.04 435.748C448.29 434.739 448.673 433.767 449.18 432.858C449.72 431.918 450.5 430.788 451.51 430.588Z" fill="#E8E8F0"/>
<path d="M440.36 463.228H441.69L441.97 461.228C442.006 460.827 442.101 460.433 442.25 460.058C442.47 459.661 442.728 459.286 443.02 458.938C444.32 457.088 444.23 454.638 444.55 452.388C445.13 449.416 446.112 446.536 447.47 443.828L450.05 438.078C450.285 437.608 450.472 437.116 450.61 436.608C450.718 436.048 450.772 435.479 450.77 434.908C450.77 434.018 451.05 430.778 451.08 429.908C451.08 429.578 450.35 429.758 450.2 429.468C449.88 428.828 449.44 430.558 448.83 430.938C448.257 431.376 447.84 431.986 447.64 432.678C447.08 434.118 446.74 435.678 446.22 437.108C445.768 438.601 444.938 439.951 443.81 441.028C443.28 441.488 442.67 441.858 442.17 442.358C440.57 443.938 440.41 446.448 440.36 448.708C440.32 450.088 440.06 463.228 440.36 463.228Z" fill="#2F2E41"/>
<path d="M459.5 428.198C458.882 428.522 458.346 428.983 457.935 429.547C457.524 430.11 457.249 430.761 457.13 431.448C456.902 432.827 456.498 434.171 455.93 435.448C454.31 438.268 450.18 439.088 449.03 442.138C448.741 443.164 448.586 444.223 448.57 445.288C448.37 447.478 447.65 449.588 447.43 451.768C447.32 453.465 447.36 455.169 447.55 456.858L449 474.078C449.278 476.611 449.132 479.173 448.57 481.658C450.056 481.87 451.572 481.619 452.91 480.938C454.26 480.318 455.5 479.468 456.81 478.748C459.05 477.508 461.53 476.638 463.5 474.988C463.853 474.707 464.157 474.369 464.4 473.988C464.701 473.266 464.903 472.505 465 471.728C465.17 471.119 465.388 470.524 465.65 469.948C466.372 468.21 466.999 466.434 467.53 464.628C467.891 463.434 468.178 462.218 468.39 460.988C468.55 459.988 468.64 458.988 468.72 457.988C468.824 456.438 469.134 454.908 469.64 453.438C470.895 449.927 471.606 446.244 471.75 442.518C471.789 441.982 471.752 441.444 471.64 440.918C471.42 440.276 471.125 439.661 470.76 439.088C470.16 437.958 469.76 436.718 469.24 435.568C467.822 433.036 465.79 430.9 463.33 429.358C462.17 428.568 460.81 427.728 459.5 428.198Z" fill="#2F2E41"/>
<path d="M429.29 456.298C428.264 455.759 427.334 455.053 426.54 454.208C426.18 453.788 425.88 453.318 425.54 452.898C424.613 451.901 423.407 451.204 422.08 450.898C420.767 450.61 419.424 450.479 418.08 450.508C417.178 450.448 416.272 450.556 415.41 450.828C414.98 450.972 414.593 451.222 414.284 451.553C413.974 451.885 413.753 452.289 413.64 452.728C413.604 453.272 413.709 453.816 413.946 454.306C414.182 454.797 414.542 455.218 414.99 455.528C415.771 456.169 416.693 456.615 417.68 456.828C418.484 456.971 419.295 457.068 420.11 457.118C424.89 457.618 429.16 460.218 433.35 462.588C437.03 464.682 440.783 466.628 444.61 468.428C444.758 467.285 444.822 466.131 444.8 464.978C444.8 464.118 444.73 462.798 443.92 462.288C442.768 461.806 441.568 461.447 440.34 461.218C437.872 460.412 435.463 459.437 433.13 458.298C431.81 457.728 430.54 457.028 429.29 456.298Z" fill="#FBBEBE"/>
<path d="M450.2 429.278C454.905 429.278 458.72 425.441 458.72 420.708C458.72 415.975 454.905 412.138 450.2 412.138C445.495 412.138 441.68 415.975 441.68 420.708C441.68 425.441 445.495 429.278 450.2 429.278Z" fill="#FBBEBE"/>
<path d="M461.93 437.908C461.25 438.863 460.695 439.902 460.28 440.998C459.28 443.158 457.58 444.998 456.75 447.288C455.92 449.578 455.91 452.518 454.2 454.388C453.858 454.675 453.599 455.048 453.45 455.468C453.443 455.73 453.416 455.991 453.37 456.248C453.12 456.928 452.01 456.958 451.8 457.658C451.74 457.858 451.8 458.078 451.7 458.278C451.53 458.728 450.93 458.798 450.54 459.068C449.71 459.628 449.88 460.928 449.29 461.738C449.033 462.04 448.7 462.268 448.326 462.4C447.952 462.532 447.55 462.562 447.16 462.488C446.384 462.33 445.638 462.05 444.95 461.658C444.703 461.523 444.431 461.438 444.15 461.408C443.818 461.42 443.497 461.532 443.23 461.728C442.476 462.284 441.871 463.018 441.47 463.864C441.068 464.71 440.883 465.643 440.93 466.578C441.045 468.452 441.492 470.291 442.25 472.008C442.334 472.306 442.481 472.582 442.68 472.818C442.978 473.052 443.338 473.192 443.716 473.221C444.093 473.249 444.471 473.165 444.8 472.978C445.452 472.591 446.147 472.279 446.87 472.048C448.19 471.808 449.48 472.718 450.82 472.638C451.796 472.494 452.715 472.09 453.48 471.468C454.826 470.666 456.034 469.653 457.06 468.468C457.64 467.698 458.06 466.828 458.58 466.008C459.242 465.012 459.959 464.053 460.73 463.138L465.65 457.138C466.139 456.568 466.58 455.96 466.97 455.318C467.407 454.443 467.743 453.52 467.97 452.568C468.496 450.984 468.832 449.342 468.97 447.678C469 446.303 468.88 444.928 468.61 443.578C468.461 442.235 468.124 440.919 467.61 439.668C466.54 437.408 463.94 435.568 461.93 437.908Z" fill="#2F2E41"/>
<path d="M479.05 426.728C479.057 425.209 478.704 423.71 478.019 422.354C477.334 420.998 476.337 419.824 475.11 418.928C475.07 416.23 474.074 413.632 472.3 411.598C470.526 409.564 468.088 408.225 465.42 407.818C464.907 405.26 463.507 402.964 461.466 401.337C459.425 399.711 456.875 398.857 454.267 398.928C451.658 398.998 449.158 399.988 447.208 401.723C445.258 403.458 443.984 405.825 443.61 408.408C440.07 407.608 436.83 408.648 436.24 410.828C435.65 413.008 438.15 415.828 441.88 416.828C443.057 417.158 444.282 417.28 445.5 417.188C446.368 418.468 447.495 419.552 448.807 420.37C450.12 421.188 451.589 421.722 453.12 421.938C453.574 424 454.592 425.894 456.062 427.41C457.531 428.925 459.393 430.001 461.44 430.518C462.01 431.885 462.89 433.1 464.01 434.068C464.01 434.338 464.01 434.618 464.01 434.898C464.01 435.845 464.197 436.783 464.559 437.657C464.921 438.532 465.452 439.327 466.122 439.997C466.791 440.666 467.586 441.197 468.461 441.56C469.336 441.922 470.273 442.108 471.22 442.108C472.167 442.108 473.104 441.922 473.979 441.56C474.854 441.197 475.649 440.666 476.318 439.997C476.988 439.327 477.519 438.532 477.881 437.657C478.244 436.783 478.43 435.845 478.43 434.898C478.431 433.798 478.195 432.71 477.74 431.708C478.62 430.198 479.073 428.476 479.05 426.728V426.728Z" fill="#F86D70"/>
<path opacity="0.1" d="M438.64 411.288C439.23 409.108 442.47 408.068 446.01 408.868C446.43 406.244 447.765 403.853 449.778 402.118C451.791 400.383 454.353 399.416 457.01 399.388H457.74C456.722 399.078 455.664 398.92 454.6 398.918C451.943 398.946 449.381 399.913 447.368 401.648C445.355 403.383 444.02 405.774 443.6 408.398C440.06 407.598 436.82 408.638 436.23 410.818C435.64 412.998 438.14 415.818 441.87 416.818C442.569 417.012 443.286 417.136 444.01 417.188C440.44 416.118 438.05 413.518 438.64 411.288Z" fill="black"/>
<path opacity="0.1" d="M466.37 435.318C466.355 435.045 466.355 434.771 466.37 434.498C465.244 433.536 464.363 432.319 463.8 430.948C461.751 430.434 459.886 429.357 458.416 427.839C456.946 426.321 455.929 424.423 455.48 422.358C453.947 422.147 452.476 421.615 451.162 420.799C449.847 419.982 448.719 418.899 447.85 417.618C447.14 417.677 446.426 417.657 445.72 417.558C446.596 418.736 447.696 419.729 448.958 420.479C450.219 421.229 451.617 421.722 453.07 421.928C453.524 423.99 454.542 425.884 456.012 427.4C457.481 428.915 459.343 429.991 461.39 430.508C461.96 431.875 462.84 433.09 463.96 434.058C463.96 434.328 463.96 434.608 463.96 434.888C463.928 436.827 464.664 438.699 466.007 440.097C467.35 441.494 469.192 442.304 471.13 442.348C469.716 441.799 468.503 440.832 467.652 439.576C466.802 438.32 466.355 436.835 466.37 435.318V435.318Z" fill="black"/>
<path d="M454.107 423.854C454.683 423.417 454.676 422.438 454.092 421.668C453.507 420.899 452.566 420.629 451.99 421.067C451.414 421.505 451.421 422.483 452.006 423.253C452.59 424.023 453.531 424.292 454.107 423.854Z" fill="#FBBEBE"/>
<defs>
<linearGradient id="paint0_linear" x1="772.07" y1="498.12" x2="772.07" y2="326" gradientUnits="userSpaceOnUse">
<stop stop-color="#808080" stop-opacity="0.25"/>
<stop offset="0.54" stop-color="#808080" stop-opacity="0.12"/>
<stop offset="1" stop-color="#808080" stop-opacity="0.1"/>
</linearGradient>
<linearGradient id="paint1_linear" x1="62409" y1="67035.6" x2="62409" y2="56849.4" gradientUnits="userSpaceOnUse">
<stop stop-color="#808080" stop-opacity="0.25"/>
<stop offset="0.54" stop-color="#808080" stop-opacity="0.12"/>
<stop offset="1" stop-color="#808080" stop-opacity="0.1"/>
</linearGradient>
</defs>
</svg>
