<?xml version="1.0" standalone="no"?>
<!DOCTYPE svg PUBLIC "-//W3C//DTD SVG 20010904//EN"
 "http://www.w3.org/TR/2001/REC-SVG-20010904/DTD/svg10.dtd">
<svg version="1.0" xmlns="http://www.w3.org/2000/svg"
 width="1038.000000pt" height="1280.000000pt" viewBox="0 0 1038.000000 1280.000000"
 preserveAspectRatio="xMidYMid meet">
<metadata>
Created by potrace 1.15, written by Peter Selinger 2001-2017
</metadata>
<g transform="translate(0.000000,1280.000000) scale(0.100000,-0.100000)"
fill="#343a40" stroke="none">
<path d="M4210 12795 c-8 -2 -49 -9 -90 -15 -153 -25 -308 -98 -434 -206 l-65
-54 -6 32 c-3 18 -6 61 -8 95 l-2 61 -165 -109 c-251 -165 -310 -243 -335
-438 l-7 -54 -19 24 c-36 46 -79 142 -79 176 0 55 -17 29 -36 -53 -19 -87 -15
-183 10 -254 12 -34 13 -46 3 -49 -25 -8 -89 -85 -118 -143 -52 -103 -81 -233
-86 -393 -6 -164 9 -260 56 -355 30 -60 30 -61 19 -140 -45 -305 185 -587 471
-579 l74 2 18 -74 c27 -106 79 -205 148 -280 50 -55 61 -74 69 -117 l9 -52
-56 -31 c-112 -60 -131 -88 -131 -189 0 -71 -2 -78 -40 -134 -53 -78 -53 -112
-2 -167 l38 -41 -116 -117 c-64 -64 -154 -159 -200 -211 -46 -52 -132 -145
-191 -207 -209 -218 -284 -369 -353 -708 -17 -85 -29 -123 -42 -130 -97 -57
-153 -130 -189 -249 -14 -45 -41 -106 -60 -136 -45 -70 -46 -107 -3 -156 18
-20 50 -47 71 -61 21 -13 37 -26 35 -27 -1 -2 -41 1 -87 5 -75 8 -199 39 -228
57 -6 4 -42 131 -80 282 l-70 276 36 89 c38 97 40 126 30 410 -4 94 -2 104 29
180 57 138 52 220 -18 279 -61 51 -155 57 -262 16 -35 -13 -50 -15 -53 -7 -2
7 -63 251 -135 542 -230 933 -374 1510 -378 1515 -2 2 -69 -29 -150 -70 l-147
-75 3 -120 c2 -66 6 -133 9 -150 9 -53 -12 -16 -98 170 -45 99 -86 184 -90
188 -3 5 -85 -19 -180 -53 -311 -109 -514 -183 -521 -189 -4 -4 1 -38 12 -76
19 -71 324 -1234 379 -1445 16 -63 39 -149 50 -190 24 -86 25 -90 10 -90 -31
0 -85 -38 -110 -78 -35 -56 -45 -111 -28 -169 12 -44 68 -115 99 -125 11 -4 8
-11 -14 -28 -59 -48 -72 -137 -35 -237 21 -56 85 -134 119 -145 12 -4 9 -11
-12 -36 -53 -63 -60 -141 -18 -221 23 -46 84 -102 130 -121 19 -7 36 -14 37
-15 2 -1 -2 -17 -7 -36 -32 -109 68 -219 201 -219 23 0 28 -6 38 -42 32 -118
267 -1013 341 -1298 32 -124 208 -792 272 -1032 11 -43 22 -78 24 -78 12 0
390 113 395 119 3 3 -11 104 -31 224 -21 129 -32 212 -25 205 7 -7 45 -66 84
-130 40 -65 75 -118 79 -118 4 0 129 40 277 90 246 81 270 91 267 110 -2 12
-46 193 -98 402 -52 210 -93 382 -91 384 2 2 37 -11 78 -29 67 -29 83 -32 174
-32 79 1 111 5 155 23 125 50 254 176 398 390 l76 112 53 0 c59 0 84 9 124 47
l26 24 72 -193 c39 -106 104 -285 145 -398 l74 -205 -24 -47 c-34 -68 -32
-112 11 -172 19 -27 35 -59 35 -70 0 -11 -59 -246 -132 -522 l-132 -501 -33
-12 c-46 -17 -93 -59 -109 -98 -18 -42 -18 -116 2 -233 30 -182 33 -283 16
-500 -21 -267 -24 -1234 -4 -1445 13 -145 39 -356 49 -406 5 -26 2 -31 -33
-45 -77 -32 -173 -104 -200 -150 -24 -41 -26 -51 -20 -117 18 -214 18 -261 -3
-372 -11 -60 -23 -139 -27 -175 -5 -46 -14 -73 -30 -92 -38 -47 -40 -69 -8
-96 25 -22 34 -24 93 -18 36 3 60 2 55 -3 -65 -60 -155 -130 -174 -136 -14 -4
-60 -25 -102 -47 -86 -44 -188 -140 -155 -146 15 -3 40 9 117 57 14 10 -2 -15
-38 -58 -34 -41 -75 -101 -92 -134 -27 -54 -30 -70 -30 -154 l0 -94 73 -34
c203 -93 729 -155 940 -110 123 26 173 61 386 273 l194 193 -7 105 c-7 95 -6
105 11 110 125 39 143 99 84 293 -17 58 -31 118 -31 135 0 48 25 130 64 211
20 41 36 88 36 103 0 30 -33 86 -76 132 l-24 26 60 242 c126 510 245 882 424
1326 109 269 102 262 110 117 18 -325 89 -675 241 -1190 36 -123 65 -224 63
-225 -2 -1 -16 -6 -32 -11 -67 -23 -96 -115 -103 -333 -6 -170 4 -246 43 -329
36 -75 76 -106 131 -101 43 3 44 2 37 -22 -3 -14 -14 -68 -23 -120 -9 -52 -23
-106 -30 -119 -12 -22 -19 -106 -9 -116 2 -3 58 -14 124 -25 65 -11 225 -43
354 -71 480 -104 654 -129 898 -129 325 0 594 51 794 150 100 48 122 70 121
116 -4 120 -15 220 -27 249 -22 53 -51 65 -193 81 -70 8 -153 22 -183 30 -74
21 -490 231 -524 264 -5 5 4 24 22 44 35 40 47 88 38 149 -14 86 -68 137 -146
137 -49 0 -49 5 -13 108 38 110 37 152 -6 196 -19 19 -67 51 -107 71 -41 19
-74 37 -74 39 0 2 22 91 50 197 153 598 284 1256 434 2177 43 265 52 341 45
373 -13 57 -57 139 -132 246 l-64 93 -6 282 c-8 359 -30 582 -87 883 -24 125
-79 348 -109 445 -12 36 -21 69 -21 73 0 5 26 -15 58 -43 31 -28 85 -65 119
-82 53 -26 71 -30 121 -26 69 5 131 44 181 114 l32 43 47 -30 c84 -54 168 -72
296 -67 96 5 127 11 235 48 434 147 893 443 1306 841 l90 87 96 3 c87 4 99 7
133 33 55 42 76 94 76 194 0 81 1 85 41 144 129 189 195 408 206 674 7 179
-11 305 -58 404 -16 34 -29 69 -29 79 0 34 -50 89 -104 116 l-54 27 -4 187
c-3 184 -4 188 -30 228 -14 22 -42 48 -62 57 l-36 17 0 834 0 835 94 0 c104 0
138 9 178 47 l26 25 122 -12 c253 -24 419 -93 610 -251 92 -76 124 -86 160
-46 28 29 21 74 -24 172 -50 109 -109 191 -206 285 -99 97 -212 169 -331 212
-86 30 -225 58 -290 58 -30 0 -42 6 -54 24 -36 54 -50 56 -475 56 -428 0 -422
1 -474 -60 -14 -18 -26 -42 -26 -56 0 -23 -2 -24 -80 -24 l-80 0 0 90 c0 98
-12 137 -52 164 -18 13 -55 16 -201 16 l-179 0 -34 -34 -34 -34 0 -336 c0
-370 2 -381 60 -411 22 -12 66 -15 190 -15 230 0 250 14 250 180 l0 90 79 0
79 0 6 -33 c7 -38 47 -80 89 -96 16 -6 71 -11 123 -11 l94 0 0 -835 0 -835
-23 -9 c-35 -14 -86 -71 -97 -110 -5 -20 -10 -122 -10 -227 0 -161 -3 -198
-17 -230 l-18 -39 -62 0 c-53 0 -66 -4 -100 -31 -21 -17 -46 -47 -56 -67 -18
-35 -18 -47 -3 -288 11 -167 21 -259 30 -277 8 -15 34 -46 58 -69 23 -23 58
-59 76 -81 32 -39 32 -40 16 -77 -14 -35 -14 -41 2 -77 16 -36 16 -39 0 -57
-35 -38 -451 -216 -696 -297 -205 -68 -488 -137 -622 -151 -58 -6 -61 -5 -53
13 17 41 28 103 22 127 -10 37 -49 57 -153 78 -77 15 -110 28 -178 69 -107 65
-196 100 -265 108 -47 4 -59 10 -85 41 -77 91 -260 270 -351 344 -214 173
-452 306 -690 386 -118 39 -248 71 -292 71 -28 0 -28 3 -2 57 26 54 21 77 -29
134 -22 24 -45 62 -52 84 -31 99 -85 165 -134 165 -11 0 -6 15 19 56 38 63 48
91 180 497 112 347 135 443 135 582 0 126 -17 197 -80 338 -62 141 -74 196
-66 306 18 247 19 268 2 318 -9 28 -24 58 -34 69 -28 31 -101 164 -91 164 18
0 92 -55 167 -125 39 -37 72 -62 72 -57 0 5 -9 38 -20 73 -23 75 -65 147 -123
208 l-42 44 45 -26 c25 -14 74 -35 108 -46 67 -21 229 -47 239 -38 13 14 -309
400 -423 506 -191 179 -380 261 -599 261 -58 0 -223 -22 -275 -37 -25 -7 -23
-4 135 140 l40 36 -85 0 c-47 -1 -92 -3 -100 -4z m2425 -11141 c59 -23 63
-203 5 -239 -9 -6 -80 31 -80 41 0 3 9 18 21 33 21 29 23 70 4 144 -6 23 -4
27 13 27 11 0 28 -3 37 -6z m-3495 -704 c0 -5 9 -19 20 -30 19 -19 19 -20 2
-20 -10 0 -23 5 -30 12 -15 15 -16 48 -2 48 6 0 10 -4 10 -10z"/>
</g>
</svg>
